<?xml version="1.0" encoding="utf-8"?>
<svg viewBox="0 0 600 340" style="enable-background:new 0 0 600 340;" xmlns="http://www.w3.org/2000/svg">
  <defs>
    <style type="text/css">
	.st0{fill:#353535;}
	.st1{fill:#19838E;}
	.st2{fill:#3737AA;}
	.st3{fill:#8B9B29;}
	.st4{fill:none;}
	.st5{fill:#3FA9F5;}
	.st6{fill:#F15A24;}
	.st7{fill:#9263AB;}
	.st8{fill:#AA2E2E;}
	.st9{fill:#FFFFFF;}
</style>
  </defs>
  <g>
    <g>
      <path class="st1" d="M180.2,75.6c47.4,5.4,84.2,45.6,84.2,94.4c0-38.8,13.3-74.6,35.6-102.9C271.6,31.1,228.7,7.2,180.2,4 l-13.9,35.8L180.2,75.6z" style="fill: rgb(59, 113, 159);"/>
    </g>
    <g>
      <path class="st2" d="M159.3,264.5c-47.8-5-85-45.4-85-94.5c0-0.5,0-1.1,0-1.6l-35.2,13.7L3,168.1c0,0.6,0,1.3,0,1.9 c0,88.6,69.3,161,156.6,166l13.7-35.4L159.3,264.5z" style="fill: rgb(59, 113, 159);"/>
    </g>
    <g>
      <path class="st0" d="M336,177C336,177,336,177,336,177C336,177,336,177,336,177z"/>
    </g>
    <g>
      <path class="st0" d="M335.7,173.5c0-1.2-0.1-2.3-0.1-3.5c0,1.2,0,2.3,0,3.5c0,0,0,0,0,0L335.7,173.5z"/>
    </g>
    <g>
      <path class="st3" d="M74.7,161.1c4.5-48.3,45.1-86.2,94.6-86.2c1.2,0,2.3,0,3.5,0.1l-13.7-35.2l14-36.1c-1.3,0-2.6,0-3.8,0 C80.5,3.7,7.9,73.3,3.2,161l35.9,13.9L74.7,161.1z" style="fill: rgb(59, 113, 159);"/>
    </g>
    <g>
      <polygon class="st4" points="266,180.3 264.7,180.8 264.7,180.8 &#9;&#9;"/>
    </g>
    <g>
      <g>
        <path class="st5" d="M264.7,180.8L264.7,180.8c0,0,0-0.1,0-0.1L264.7,180.8z" style="fill: rgb(59, 113, 159);"/>
      </g>
      <g>
        <path class="st5" d="M335.3,180.5L300.5,167l-34,13.2l0,0l-0.5,0.2l-1.3,0.5c0,0,0,0,0,0.1c0,0,0,0,0,0l-1,0.4 c-5.6,47.2-45.7,83.8-94.4,83.8c-0.9,0-1.8,0-2.7,0l13.8,35.7l-13.8,35.6c0.9,0,1.8,0,2.7,0c53,0,100.2-24.8,130.7-63.4 c0,0,0-0.1,0-0.1C320.3,247.1,333.1,215.2,335.3,180.5z" style="fill: rgb(59, 113, 159);"/>
      </g>
      <g>
        <path class="st5" d="M264.7,180.7C264.7,180.7,264.7,180.7,264.7,180.7L264.7,180.7L264.7,180.7z" style="fill: rgb(59, 113, 159);"/>
      </g>
    </g>
    <g>
      <g>
        <polygon class="st6" points="264.4,173.8 264.4,173.8 264.4,173.8 &#9;&#9;&#9;"/>
      </g>
      <g>
        <path class="st6" d="M264.4,173.9L264.4,173.9C264.4,173.8,264.4,173.9,264.4,173.9L264.4,173.9z"/>
      </g>
      <g>
        <path class="st6" d="M458.8,6.1c-9.2-1.6-18.6-2.4-28.1-2.4c-53,0-100.2,24.8-130.7,63.4c-22.3,28.3-35.6,64-35.6,102.9 c0,1.3,0,2.6,0,3.8l36.1-14l35.1,13.6c0-1.2,0-2.3,0-3.5c0-52.5,42.6-95,95-95c4.3,0,8.5,0.3,12.7,0.8l21.1-31.3L458.8,6.1z" style="fill: rgb(59, 113, 159);"/>
      </g>
    </g>
    <g>
      <path class="st7" d="M594.5,198.8c1.6-9.4,2.5-19,2.5-28.8c0-79.8-56.2-146.5-131.3-162.6l5.7,38.7l-20.9,31 c43,9.1,75.2,47.3,75.2,93c0,4.2-0.3,8.4-0.8,12.5l32.2,21.8L594.5,198.8z" style="fill: rgb(59, 113, 159);"/>
    </g>
    <g>
      <path class="st8" d="M523.7,189.7c-9.1,43-47.3,75.4-93,75.4c-4.2,0-8.3-0.3-12.4-0.8L396.4,297l5.6,36.9 c9.3,1.6,18.9,2.5,28.7,2.5c79.6,0,146.1-55.9,162.5-130.6l-37.6,5.5L523.7,189.7z" style="fill: rgb(59, 113, 159);"/>
    </g>
    <g>
      <path class="st1" d="M411.1,263c-39.7-8.3-70.2-41.3-74.9-82.2l-0.9-0.4c-2.2,34.8-15,66.7-35.3,92.4c23.4,29.7,56.8,51.2,95,59.6 l-5.6-37.1L411.1,263z" style="fill: rgb(59, 113, 159);"/>
    </g>
    <g/>
  </g>
</svg>